# xmcd
#
# Track frame offsets: 
#        150
#        31566
#        54376
#        76425
#        94465
#        117248
#        140127
#        162905
#
# Disc length: 2510 seconds
#
# Revision: 1
# Processed by: cddbd v1.5.2PL0 Copyright (c) Steve Scherf et al.
# Submitted via: ExactAudioCopy v0.99pb5
#
DISCID=6409cc08
DTITLE=Guayacan - Nadie nos quita lo Bailao
DYEAR=1999
DGENRE=Salsa
TTITLE0=Fiesta Tropical: Veneración-La cochimba de San Juan...
TTITLE1=Fiesta Colombiana:Colombia caribe-Colombia tierra querida-Soy 
TTITLE1=Colombiano...
TTITLE2=Fiesta Costeña: Tres perlas-Sonia-Yo me llamo cumbia
TTITLE3=Fiesta Carranguera: La china q´yo tenia-Julia, Julia, Julia...
TTITLE4=Fiesta Carnaval: Las pilanderas-La maestranza-El pilon...
TTITLE5=Fiesta Caleña: Mi Cali bella-Palmira señorial-Por las buenas
TTITLE6=Fiesta Llanera: Carmentea-Guayabo negro-ay si, si
TTITLE7=Fiesta Navideña: El año viejo-Cantares de navidad-Año nuevo
EXTD=YEAR: 1999
EXTT0=
EXTT1=
EXTT2=
EXTT3=
EXTT4=
EXTT5=
EXTT6=
EXTT7=
PLAYORDER=
